<?xml version="1.0" standalone="no"?><!DOCTYPE svg PUBLIC "-//W3C//DTD SVG 1.1//EN" "http://www.w3.org/Graphics/SVG/1.1/DTD/svg11.dtd"><svg t="1678003726843" class="icon" viewBox="0 0 1024 1024" version="1.1" xmlns="http://www.w3.org/2000/svg" p-id="15805" xmlns:xlink="http://www.w3.org/1999/xlink" width="200" height="200"><path d="M753.891556 1022.558815c-64.587852 0-147.911111-43.045926-206.430815-79.227259-78.430815-48.355556-162.929778-115.294815-237.871408-188.491852l-0.265481-0.265482-23.817482-23.817481c-73.045333-75.093333-139.870815-159.744-188.22637-238.288593C61.212444 433.872593 18.204444 350.435556 18.204444 285.696c0-69.176889 49.379556-142.601481 70.580149-170.970074C105.434074 92.577185 163.309037 20.366222 212.498963 20.366222c20.214519 0 41.984 13.274074 70.580148 42.932148 25.296593 26.282667 49.531259 58.898963 65.422222 81.654519 21.352296 30.606222 41.111704 62.577778 55.637334 90.112 23.514074 44.562963 26.244741 63.715556 26.24474 74.221037 0 21.200593-11.07437 39.594667-32.881777 54.651259-14.336 9.936593-31.55437 17.408-48.241778 24.613926-11.264 4.854519-29.202963 12.629333-36.02963 18.090667 2.389333 10.126222 12.818963 34.588444 40.997926 76.079407a883.370667 883.370667 0 0 0 91.022222 112.109037 882.157037 882.157037 0 0 0 111.881482 91.173926c41.453037 28.254815 65.877333 38.684444 76.003555 41.111704 5.461333-6.902519 13.198222-24.841481 18.052741-36.143408 7.205926-16.687407 14.677333-33.943704 24.576-48.317629 15.018667-21.807407 33.374815-32.881778 54.575408-32.881778 10.467556 0 29.582222 2.692741 74.107259 26.244741 27.496296 14.52563 59.392 34.322963 89.92237 55.751111 22.755556 15.890963 55.296 40.201481 81.540741 65.536 29.620148 28.634074 42.856296 50.441481 42.856296 70.656 0 49.303704-72.059259 107.254519-94.208 123.866074-28.292741 21.238519-101.603556 70.731852-170.666666 70.731852" fill="#000000" p-id="15806"></path></svg>